<svg xmlns="http://www.w3.org/2000/svg" width="54" height="39" viewBox="0 0 54 39" fill="none">
    <path
        d="M45.8336 28.4082C44.1896 30.0163 42.1517 31.1584 39.9269 31.7186C37.7021 32.2787 35.3695 32.237 33.1659 31.5976C36.1767 28.1036 37.8167 23.625 37.7785 19.0018C37.7402 14.3786 36.0264 9.9281 32.9582 6.48493C35.0834 5.82815 37.3406 5.73077 39.5139 6.20209C41.6872 6.67341 43.7039 7.69767 45.3711 9.17688L49.3713 4.84715C46.459 2.22464 42.8097 0.574804 38.9262 0.124897C35.0427 -0.32501 31.116 0.447154 27.687 2.33502C24.7945 0.806569 21.5573 0.0584866 18.2915 0.163803C15.0257 0.269119 11.8428 1.22423 9.05362 2.93591C6.26442 4.64758 3.96421 7.05733 2.37754 9.92989C0.790863 12.8025 -0.028053 16.0397 0.000733549 19.3256C0.0295201 22.6114 0.905025 25.8336 2.54178 28.6776C4.17854 31.5216 6.52061 33.8902 9.33937 35.5522C12.1581 37.2142 15.3572 38.1128 18.6244 38.1602C21.8916 38.2077 25.1151 37.4023 27.9804 35.8229C32.3911 38.1535 37.5382 38.639 42.3029 37.174C47.0676 35.7089 51.0646 32.4116 53.4251 27.999L45.8336 28.4082ZM18.8857 32.2469C15.8507 32.2476 12.9102 31.1856 10.5691 29.2431C8.2281 27.3007 6.63269 24.5991 6.05693 21.6023C5.48116 18.6056 5.96097 15.5007 7.41395 12.8211C8.86693 10.1414 11.2024 8.05416 14.0192 6.91784C16.836 5.78151 19.9584 5.66702 22.85 6.59404C25.7416 7.52105 28.222 9.43172 29.8652 11.9979C31.5084 14.564 32.2118 17.6255 31.8545 20.6564C31.4973 23.6874 30.1018 26.4986 27.9076 28.6074C26.9091 27.6734 26.061 26.5891 25.3936 25.3932L18.6619 24.4521C19.4611 27.1341 20.8403 29.6051 22.7007 31.688C21.4639 32.068 20.1778 32.2607 18.8846 32.2598L18.8857 32.2469Z"
        fill="white" />
</svg>